<svg xmlns="http://www.w3.org/2000/svg" viewBox="0 0 640 360" role="img" aria-label="Deck sintético">
<defs><linearGradient id="sky" x1="0" x2="1" y1="0" y2="1"><stop offset="0" stop-color="#e0f2fe"/><stop offset="1" stop-color="#f8fafc"/></linearGradient><linearGradient id="wood" x1="0" x2="1"><stop offset="0" stop-color="#b77943"/><stop offset="1" stop-color="#d6a76a"/></linearGradient><filter id="shadow" x="-20%" y="-20%" width="140%" height="140%"><feDropShadow dx="0" dy="12" stdDeviation="10" flood-color="#0f172a" flood-opacity=".18"/></filter></defs>
<rect width="640" height="360" rx="28" fill="url(#sky)"/>
<g filter="url(#shadow)"><polygon points="110,230 510,130 560,185 160,290" fill="#1f2937"/><polygon points="125,215 500,122 545,175 170,272" fill="url(#wood)" stroke="#0f172a" stroke-width="8" stroke-linejoin="round"/><g stroke="#7c4a22" stroke-width="4" opacity=".55"><path d="M165 205 L208 260"/><path d="M220 190 L263 246"/><path d="M275 176 L318 232"/><path d="M330 162 L373 218"/><path d="M385 148 L428 204"/><path d="M440 134 L483 190"/></g><g stroke="#fef3c7" stroke-width="3" opacity=".35"><path d="M145 222 L520 130"/><path d="M158 242 L533 150"/><path d="M171 262 L546 170"/></g><rect x="148" y="272" width="22" height="70" fill="#111827"/><rect x="512" y="181" width="20" height="100" fill="#111827"/></g>
<text x="320" y="330" text-anchor="middle" font-family="Arial" font-size="28" font-weight="800" fill="#0f172a">Deck sintético</text>
</svg>