<svg xmlns="http://www.w3.org/2000/svg" viewBox="0 0 640 360" role="img" aria-label="Galvateja">
<defs><linearGradient id="sky" x1="0" x2="1" y1="0" y2="1"><stop offset="0" stop-color="#e0f2fe"/><stop offset="1" stop-color="#f8fafc"/></linearGradient><linearGradient id="wood" x1="0" x2="1"><stop offset="0" stop-color="#b77943"/><stop offset="1" stop-color="#d6a76a"/></linearGradient><filter id="shadow" x="-20%" y="-20%" width="140%" height="140%"><feDropShadow dx="0" dy="12" stdDeviation="10" flood-color="#0f172a" flood-opacity=".18"/></filter></defs>
<rect width="640" height="360" rx="28" fill="url(#sky)"/>
<g filter="url(#shadow)"><path d="M95 145 L320 70 L545 145 V270 H95 Z" fill="#f97316" stroke="#0f172a" stroke-width="10" stroke-linejoin="round"/><path d="M95 145 L320 70 L545 145" fill="none" stroke="#7c2d12" stroke-width="9"/><g fill="none" stroke="#fed7aa" stroke-width="6" opacity=".9"><path d="M130 165 C160 140 190 140 220 165 C250 190 280 190 310 165 C340 140 370 140 400 165 C430 190 460 190 490 165"/><path d="M130 205 C160 180 190 180 220 205 C250 230 280 230 310 205 C340 180 370 180 400 205 C430 230 460 230 490 205"/><path d="M130 245 C160 220 190 220 220 245 C250 270 280 270 310 245 C340 220 370 220 400 245 C430 270 460 270 490 245"/></g></g><rect x="145" y="270" width="350" height="22" rx="11" fill="#0f172a"/>
<text x="320" y="330" text-anchor="middle" font-family="Arial" font-size="28" font-weight="800" fill="#0f172a">Galvateja</text>
</svg>